<svg version="1.2" xmlns="http://www.w3.org/2000/svg" viewBox="0 0 64 64" width="64" height="64">
	<title>flag</title>
	<style>
		.s0 { fill: #42ade2 } 
		.s1 { fill: #699635 } 
		.s2 { fill: #ffe62e } 
	</style>
	<path class="s0" d="m32 2c-16.6 0-30 13.4-30 30h60c0-16.6-13.4-30-30-30z"/>
	<path class="s1" d="m58 47h-52c5.2 9 14.9 15 26 15 11.1 0 20.8-6 26-15z"/>
	<g>
		<path class="s2" d="m58 47c2.6-4.4 4-9.5 4-15h-60c0 5.5 1.5 10.6 4 15z"/>
		<path class="s2" d="m46.2 19.5l8.7-0.5-8.7-0.5 8.3-2.8-8.5 1.8 7.2-4.8-7.7 3.9 5.7-6.5-6.5 5.8 3.9-7.8-4.7 7.3 1.7-8.5-2.7 8.2-0.5-8.7-0.5 8.7-2.8-8.2 1.8 8.5-4.8-7.3 3.9 7.8-6.5-5.8 5.8 6.5-7.8-3.9 7.3 4.8-8.5-1.8 8.2 2.8-8.6 0.5 8.6 0.5-8.2 2.7 8.5-1.8-7.3 4.8 7.8-3.9-5.8 6.5 6.5-5.8-3.9 7.8 4.8-7.3-1.8 8.5 2.8-8.2 0.5 8.7 0.5-8.7 2.7 8.2-1.7-8.5 4.7 7.3-3.9-7.8 6.5 5.8-5.7-6.5 7.7 3.9-7.2-4.8 8.5 1.8z"/>
		<path fill-rule="evenodd" class="s2" d="m42.4 22.7c-2 0-3.7-1.7-3.7-3.7 0-2 1.7-3.7 3.7-3.7 2 0 3.7 1.7 3.7 3.7 0 2-1.7 3.7-3.7 3.7z"/>
	</g>
	<path class="s0" d="m42.4 23c-2.2 0-4.1-1.8-4.1-4.1 0-2.2 1.8-4.1 4.1-4.1 2.3 0 4.1 1.8 4.1 4.1 0 2.3-1.9 4.1-4.1 4.1zm0-7.4c-1.8 0-3.3 1.5-3.3 3.3 0 1.8 1.5 3.3 3.3 3.3 1.8 0 3.3-1.5 3.3-3.3 0-1.8-1.5-3.3-3.3-3.3z"/>
</svg>